<?xml version="1.0" encoding="utf-8"?>
<!-- Uploaded to: SVG Repo, www.svgrepo.com, Generator: SVG Repo Mixer Tools -->
<svg width="800px" height="800px" viewBox="0 0 1024 1024" class="icon"  version="1.1" xmlns="http://www.w3.org/2000/svg"><path d="M682.666667 320V149.333333H341.333333v170.666667L132.266667 853.333333c-12.8 32 10.666667 64 44.8 64h672c34.133333 0 55.466667-34.133333 44.8-64L682.666667 320z" fill="#9CCC65" /><path d="M682.666667 192H341.333333c-23.466667 0-42.666667-19.2-42.666666-42.666667s19.2-42.666667 42.666666-42.666666h341.333334c23.466667 0 42.666667 19.2 42.666666 42.666666s-19.2 42.666667-42.666666 42.666667z" fill="#8BC34A" /><path d="M597.333333 640c0 93.866667-85.333333 170.666667-85.333333 170.666667s-85.333333-76.8-85.333333-170.666667 85.333333-170.666667 85.333333-170.666667 85.333333 76.8 85.333333 170.666667z" fill="#2E7D32" /><path d="M663.466667 695.466667c-42.666667 85.333333-151.466667 115.2-151.466667 115.2s-42.666667-106.666667 0-189.866667 151.466667-115.2 151.466667-115.2 42.666667 104.533333 0 189.866667z" fill="#388E3C" /><path d="M360.533333 695.466667c42.666667 85.333333 151.466667 115.2 151.466667 115.2s42.666667-106.666667 0-189.866667-151.466667-115.2-151.466667-115.2-42.666667 104.533333 0 189.866667z" fill="#43A047" /></svg>