<?xml version="1.0" encoding="utf-8"?>
<!-- Uploaded to: SVG Repo, www.svgrepo.com, Generator: SVG Repo Mixer Tools -->
<svg fill="#000000" width="800px" height="800px" viewBox="0 0 32 32" version="1.1" xmlns="http://www.w3.org/2000/svg">
<title>ocean-emblem</title>
<path d="M16.002 1.152c-8.159 0-14.773 6.614-14.773 14.773s6.614 14.773 14.773 14.773 14.773-6.614 14.773-14.773-6.614-14.773-14.773-14.773zM21.298 21.64c-2.618 4.672-6.863 4.226-10.022 0.098-1.102 1.773-3.962 3.13-6.114 2.794-1.377-1.72-2.354-3.773-2.791-6.019 1.461 1.416 4.027 1.891 5.323-0.181 2.023 3.041 6.275 3.222 8.765-0.316 1.489 2.128 5.374 4.036 8.225-0.685 1.277 2.542 3.716 1.703 5.171 0.044-0.291 2.66-1.332 5.095-2.908 7.089-2.135 1.202-3.716 0.506-5.65-2.823zM16.027 1.93c7.684 0 13.913 6.229 13.913 13.913 0 0.289-0.010 0.576-0.027 0.86-1.943 0.542-4.29-0.863-5.382-2.728-2.973 4.128-5.608 4.574-8.072-0.098-2.309 4.222-6.511 4.572-8.571 1.254-2.122 2.894-3.56 3.26-5.735 1.756-0.026-0.345-0.039-0.693-0.039-1.044 0-7.684 6.229-13.913 13.913-13.913zM7.015 26.442c1.525 0.536 3.2 0.334 4.098-1.348 3.030 4.72 8.603 2.813 10.185 0.685 1.092 1.247 2.388 1.301 3.666 0.727-2.417 2.028-5.534 3.25-8.937 3.25-3.438 0-6.584-1.248-9.012-3.314z"></path>
</svg>